<?xml version="1.0" encoding="utf-8"?>
<!-- Generator: Adobe Illustrator 15.0.2, SVG Export Plug-In . SVG Version: 6.00 Build 0)  -->
<!DOCTYPE svg PUBLIC "-//W3C//DTD SVG 1.1//EN" "http://www.w3.org/Graphics/SVG/1.1/DTD/svg11.dtd">
<svg version="1.1" id="Layer_1" xmlns="http://www.w3.org/2000/svg" xmlns:xlink="http://www.w3.org/1999/xlink" x="0px" y="0px"
	 viewBox="0 0 246.96 247.231" enable-background="new 0 0 246.96 247.231"
	 xml:space="preserve">
<g>
	<polygon fill="#Fceb74" points="70.511,124.926 123.771,32.742 148.089,74.992 108.354,74.992 98.729,91.725 176.688,91.725 
		123.729,0 51.405,124.908 	"/>
	<polygon fill="#Fceb74" points="98.835,124.713 113.396,99.713 94.089,99.713 79.525,124.713 	"/>
	<polygon fill="#Fceb74" points="132.646,213.686 141.837,197.706 28.463,197.706 51.713,157.463 32.556,157.463 0,213.686 	"/>
	<polygon fill="#Fceb74" points="61.003,189.879 79.87,157.379 60.563,157.379 41.695,189.879 	"/>
	<polygon fill="#Fceb74" points="92.474,149.493 69.026,189.879 88.345,189.879 121.651,132.654 37.109,132.654 27.479,149.493 	"/>
	<polygon fill="#Fceb74" points="117.483,189.879 150.878,132.355 131.569,132.355 98.176,189.879 	"/>
	<polygon fill="#Fceb74" points="145.938,189.879 189.069,115.631 179.427,98.932 126.628,189.879 	"/>
	<polygon fill="#Fceb74" points="140.782,247.231 194.042,155.047 218.36,197.297 178.626,197.297 169.001,214.03 246.96,214.03 
		194.001,122.305 121.677,247.213 	"/>
</g>
</svg>
